<?xml version="1.0" standalone="no"?><!DOCTYPE svg PUBLIC "-//W3C//DTD SVG 1.1//EN" "http://www.w3.org/Graphics/SVG/1.1/DTD/svg11.dtd"><svg t="1655273910508" class="icon" viewBox="0 0 1024 1024" version="1.1" xmlns="http://www.w3.org/2000/svg" p-id="4664" data-spm-anchor-id="a313x.7781069.0.i23" xmlns:xlink="http://www.w3.org/1999/xlink" width="300" height="300"><defs><style type="text/css">@font-face { font-family: feedback-iconfont; src: url("//at.alicdn.com/t/font_1031158_u69w8yhxdu.woff2?t=1630033759944") format("woff2"), url("//at.alicdn.com/t/font_1031158_u69w8yhxdu.woff?t=1630033759944") format("woff"), url("//at.alicdn.com/t/font_1031158_u69w8yhxdu.ttf?t=1630033759944") format("truetype"); }
</style></defs><path d="M516.5568 507.6992m-453.5808 0a453.5808 453.5808 0 1 0 907.1616 0 453.5808 453.5808 0 1 0-907.1616 0Z" fill="#515151" p-id="4665" data-spm-anchor-id="a313x.7781069.0.i20" class="selected"></path><path d="M970.1376 507.6992c0-8.4992-0.256-16.9984-0.7168-25.3952l-136.2432-129.792-55.04 66.3552-240.4864-183.1936L432.128 501.8112 251.1872 349.4912 196.1472 407.552l134.9632 219.392-24.0128 41.7792 42.0864 50.176-46.7456 33.1776 121.7024 199.7824a454.12352 454.12352 0 0 0 92.416 9.4208c250.5216 0 453.5808-203.0592 453.5808-453.5808z" fill="#515151" p-id="4666" data-spm-anchor-id="a313x.7781069.0.i24" class=""></path><path d="M805.0176 342.6816c-22.2208 0-40.2432 18.0224-40.2432 40.2432 0 7.936 2.3552 15.36 6.2976 21.6064l-130.048 80.7936-102.912-183.552a40.192 40.192 0 0 0 16.9984-32.768 40.24832 40.24832 0 0 0-80.4864 0 40.1408 40.1408 0 0 0 16.896 32.7168L391.7824 488.3456 259.84 408.0128a39.95136 39.95136 0 0 0 8.8576-25.1392 40.24832 40.24832 0 0 0-80.4864 0c0 22.2208 18.0224 40.2432 40.2432 40.2432 2.048 0 3.9936-0.2048 5.9392-0.512l72.6528 246.1184h415.6416l72.4992-246.8864c3.1232 0.768 6.4 1.2288 9.7792 1.2288 22.2208 0 40.2432-18.0224 40.2432-40.2432 0.0512-22.1184-17.9712-40.1408-40.192-40.1408zM700.3136 769.28H328.2944c-15.7696 0-28.5184-12.7488-28.5184-28.5184v-1.4848c0-15.7696 12.7488-28.5184 28.5184-28.5184h372.0192c15.7696 0 28.5184 12.7488 28.5184 28.5184v1.4848c0 15.7696-12.7488 28.5184-28.5184 28.5184z" fill="#ecd2af" p-id="4667" data-spm-anchor-id="a313x.7781069.0.i22" class="selected"></path></svg>