<?xml version="1.0" standalone="no"?><!DOCTYPE svg PUBLIC "-//W3C//DTD SVG 1.1//EN" "http://www.w3.org/Graphics/SVG/1.1/DTD/svg11.dtd"><svg t="1647398722503" class="icon" viewBox="0 0 1024 1024" version="1.1" xmlns="http://www.w3.org/2000/svg" p-id="2120" xmlns:xlink="http://www.w3.org/1999/xlink" width="300" height="300"><defs><style type="text/css"></style></defs><path d="M92.063 244.648H932.46c36.363 0 60.602 25.067 60.602 62.664v463.692c0 33.416-24.237 62.654-60.602 62.654H92.063c-36.364 0-64.651-29.238-64.651-62.654V307.313c0-37.597 28.287-62.665 64.651-62.665" fill="#EBC95F" p-id="2121"></path><path d="M123.659 325.571h60.333v2.497c-4.571 0.507-7.862 1.34-9.873 2.497-1.89 1.086-3.414 2.769-4.57 5.049-1.159 2.28-1.737 4.76-1.737 7.438 0 1.883 0.151 3.547 0.457 4.995 0.304 1.449 1.218 4.597 2.742 9.446l27.059 87.403 26.236-76.654c3.656-10.785 5.484-18.638 5.484-23.561 0-2.75-0.365-5.32-1.097-7.708s-1.707-4.234-2.925-5.538c-1.22-1.23-2.56-2.099-4.022-2.605-1.463-0.506-3.353-0.76-5.668-0.76v-2.497h40.679v2.497c-3.353 0.363-6.262 1.34-8.73 2.932-2.468 1.593-4.831 4.017-7.084 7.274-1.524 2.317-3.124 5.483-4.799 9.5-1.677 4.017-3.977 10.225-6.902 18.621l-37.479 107.38h-3.839L151.54 362.812c-4.753-14.549-8.563-23.778-11.427-27.687-1.828-2.46-4.068-4.251-6.719-5.375-2.651-1.122-5.896-1.683-9.735-1.683v-2.496zM323.843 325.571v2.497c-3.474 0.217-6.293 0.797-8.456 1.737-2.164 0.941-4.1 2.461-5.805 4.56-2.376 2.896-3.839 6.913-4.388 12.052-0.366 3.837-0.549 8.252-0.549 13.246v80.02c0 6.01 0.243 10.749 0.731 14.224 0.487 3.474 1.28 6.262 2.376 8.359 1.584 2.896 3.625 5.049 6.125 6.46 2.498 1.412 5.819 2.264 9.964 2.553v2.497H265.43v-2.497c3.534-0.218 6.383-0.814 8.547-1.792 2.163-0.979 4.068-2.479 5.713-4.506 1.95-2.316 3.259-5.248 3.931-8.796 0.67-3.545 1.006-9.047 1.006-16.503v-80.02c0-7.454-0.336-12.956-1.006-16.503-0.671-3.545-1.981-6.477-3.931-8.794-1.646-2.099-3.565-3.619-5.759-4.56-2.194-0.94-5.028-1.52-8.501-1.737v-2.497h58.413zM381.94 400.705v38.979c0 7.384 0.35 12.866 1.051 16.449 0.7 3.583 1.995 6.533 3.885 8.85 1.646 2.026 3.55 3.527 5.713 4.506 2.163 0.977 5.012 1.574 8.547 1.792v2.497h-58.413v-2.497c3.534-0.218 6.384-0.814 8.548-1.792 2.162-0.979 4.067-2.479 5.713-4.506 1.949-2.316 3.259-5.248 3.931-8.796 0.67-3.545 1.006-9.047 1.006-16.503v-80.02c0-6.224-0.229-11.02-0.686-14.386-0.457-3.366-1.234-6.097-2.331-8.197-1.585-2.894-3.598-5.049-6.034-6.46-2.438-1.412-5.607-2.262-9.507-2.552h-0.641v-2.497h55.122c9.628 0 16.729 0.58 21.3 1.737 4.57 1.159 8.744 3.474 12.523 6.949 8.653 7.817 12.98 18.24 12.98 31.27 0 13.246-4.389 22.946-13.164 29.098-4.57 3.186-10.117 5.103-16.638 5.754-2.071 0.217-7.069 0.326-14.991 0.326l-17.914-0.001z m0-3.475h8.958c6.032 0 10.68-0.524 13.939-1.574 3.26-1.048 6.17-2.986 8.73-5.809 5.972-6.442 8.958-15.019 8.958-25.732 0-5.934-0.868-11.382-2.605-16.34s-4.221-8.993-7.45-12.106c-3.718-3.691-8.136-5.863-13.255-6.514-1.402-0.146-4.603-0.217-9.599-0.217h-7.679v68.292h0.003z" fill="#25221E" p-id="2122"></path><path d="M29.429 551.242h961.615v135.887H29.429z" fill="#242729" p-id="2123"></path></svg>