<?xml version="1.0" standalone="no"?><!DOCTYPE svg PUBLIC "-//W3C//DTD SVG 1.1//EN" "http://www.w3.org/Graphics/SVG/1.1/DTD/svg11.dtd"><svg t="1655274979800" class="icon" viewBox="0 0 1024 1024" version="1.1" xmlns="http://www.w3.org/2000/svg" p-id="10530" xmlns:xlink="http://www.w3.org/1999/xlink" width="300" height="300"><defs><style type="text/css">@font-face { font-family: feedback-iconfont; src: url("//at.alicdn.com/t/font_1031158_u69w8yhxdu.woff2?t=1630033759944") format("woff2"), url("//at.alicdn.com/t/font_1031158_u69w8yhxdu.woff?t=1630033759944") format("woff"), url("//at.alicdn.com/t/font_1031158_u69w8yhxdu.ttf?t=1630033759944") format("truetype"); }
</style></defs><path d="M512 506.7264m-453.5808 0a453.5808 453.5808 0 1 0 907.1616 0 453.5808 453.5808 0 1 0-907.1616 0Z" fill="#fa5e3b" p-id="10531"></path><path d="M965.5808 506.7264c0-7.5264-0.2048-15.0016-0.5632-22.4256L735.4368 278.016H414.2592L296.3968 421.0176v310.8864l108.1344 215.6032a455.68512 455.68512 0 0 0 107.4176 12.8512c250.5728-0.0512 453.632-203.1104 453.632-453.632z" fill="#fa5e3b" p-id="10532" data-spm-anchor-id="a313x.7781069.0.i63" class=""></path><path d="M776.448 412.6208a31.19616 31.19616 0 0 1-14.6944-35.5328c9.3184-34.2016 0.5632-72.2432-26.2656-99.072-26.88-26.88-64.9216-35.584-99.072-26.2656-13.9264 3.7888-28.3648-2.2016-35.5328-14.6944-17.6128-30.8224-50.7904-51.5584-88.832-51.5584-38.0416 0-71.2192 20.736-88.832 51.5584a31.19616 31.19616 0 0 1-35.5328 14.6944c-34.2016-9.3184-72.2432-0.5632-99.072 26.2656-26.88 26.88-35.584 64.9216-26.2656 99.072 3.7888 13.9264-2.2016 28.3648-14.6944 35.5328-30.8224 17.6128-51.5584 50.7904-51.5584 88.832 0 38.0416 20.736 71.2192 51.5584 88.832a31.19616 31.19616 0 0 1 14.6944 35.5328c-9.3184 34.2016-0.5632 72.2432 26.2656 99.072 26.88 26.88 64.9216 35.584 99.072 26.2656 13.9264-3.7888 28.3648 2.2016 35.5328 14.6944 17.6128 30.8224 50.7904 51.5584 88.832 51.5584 38.0416 0 71.2192-20.736 88.832-51.5584a31.19616 31.19616 0 0 1 35.5328-14.6944c34.2016 9.3184 72.2432 0.5632 99.072-26.2656 26.88-26.88 35.584-64.9216 26.2656-99.072-3.7888-13.9264 2.2016-28.3648 14.6944-35.5328 30.8224-17.6128 51.5584-50.7904 51.5584-88.832s-20.7872-71.2192-51.5584-88.832zM360.96 421.0176a40.1408 40.1408 0 1 1 80.2816 0 40.1408 40.1408 0 0 1-80.2816 0z m82.0736 230.2464a22.9632 22.9632 0 0 1-31.7952 7.0144c-10.752-6.8096-13.8752-21.0944-7.0656-31.7952l176.5376-277.248c6.8096-10.752 21.0944-13.8752 31.7952-7.0656 10.752 6.8096 13.8752 21.0944 7.0656 31.7952L443.0336 651.264z m180.4288-41.0112a40.1408 40.1408 0 1 1 0-80.2816 40.1408 40.1408 0 0 1 0 80.2816z" fill="#ffffff" p-id="10533" data-spm-anchor-id="a313x.7781069.0.i64" class="selected"></path></svg>